<svg xmlns="http://www.w3.org/2000/svg" width="121" height="40" viewBox="0 0 121 40">
  <g fill="none">
    <path fill="#FFF" d="M2.29614865,9.127923 C2.58316867,8.5355312 3.0415965,8.0327852 3.671446,7.6196699 C4.3012955,7.2065546 5.0467391,7 5.9077991,7 C6.6731858,7 7.3628208,7.1714793 7.9767247,7.5144429 C8.5906287,7.8574066 9.0729745,8.4264059 9.4237768,9.221458 C9.8064701,8.5043522 10.3406382,7.9548391 11.0262972,7.5729023 C11.7119561,7.1909655 12.461386,7 13.2746094,7 C14.008105,7 14.637945,7.1208149 15.1641484,7.3624484 C15.6903518,7.6040819 16.128848,7.9275541 16.4796502,8.3328748 C16.8304525,8.7381955 17.0895639,9.2136607 17.2569922,9.7592847 C17.4244206,10.3049087 17.5081335,10.8894971 17.5081335,11.5130674 L17.5081335,18.3878955 L15.2598213,18.3878955 L15.2598213,12.2379642 C15.2598213,11.7858758 15.219958,11.3571776 15.1402302,10.9518569 C15.0605024,10.5465363 14.9249672,10.1879887 14.7336205,9.8762036 C14.5422738,9.5644184 14.2871488,9.3149941 13.9682376,9.127923 C13.6493265,8.9408519 13.2427209,8.8473177 12.7484087,8.8473177 C12.2381509,8.8473177 11.7996546,8.9525437 11.4329068,9.1629986 C11.066159,9.3734536 10.7671843,9.6462615 10.5359738,9.9814305 C10.3047632,10.3165996 10.1373374,10.6946334 10.0336912,11.1155433 C9.9300451,11.5364533 9.8782229,11.9651514 9.8782229,12.4016506 L9.8782229,18.3878955 L7.6299106,18.3878955 L7.6299106,11.7936726 C7.6299106,11.3571734 7.5900473,10.9596533 7.5103196,10.6011004 C7.4305918,10.2425475 7.2950566,9.9346643 7.1037099,9.6774415 C6.9123632,9.4202188 6.6652108,9.2175615 6.3622452,9.0694635 C6.0592797,8.9213656 5.6845647,8.8473177 5.2380891,8.8473177 C4.4089202,8.8473177 3.7192852,9.1785845 3.1691635,9.8411279 C2.61904181,10.5036714 2.34398508,11.3883484 2.34398508,12.4951857 L2.34398508,18.3878955 L0.09567286,18.3878955 L0.09567286,9.6891334 C0.09567286,9.3929375 0.0877002,9.0110065 0.07175465,8.5433287 C0.05580909,8.075651 0.03189111,7.6625419 -3.55271368e-15,7.303989 L2.12872115,7.303989 C2.16061226,7.5845956 2.18453024,7.9002733 2.20047579,8.2510316 C2.21642135,8.6017899 2.22439401,8.8940841 2.22439401,9.127923 L2.29614865,9.127923 Z M25.4270559,16.002751 L25.4748923,16.002751 L28.6081785,7.303989 L31,7.303989 L25.4988105,21.0068776 C25.3074638,21.4745553 25.1001747,21.8915617 24.8769369,22.2579092 C24.6536991,22.6242568 24.3906014,22.9360372 24.0876358,23.19326 C23.7846703,23.4504827 23.4298869,23.6492428 23.0232753,23.7895461 C22.6166636,23.9298494 22.1343177,24 21.5762232,24 C21.3370399,24 21.0938738,23.9883082 20.8467177,23.9649243 C20.5995616,23.9415405 20.3484228,23.8986706 20.0932939,23.8363136 L20.3085578,21.8954608 C20.6912512,22.0201749 21.0659661,22.0825309 21.4327139,22.0825309 C22.0226995,22.0825309 22.4611958,21.9227435 22.7482158,21.6031637 C23.0352358,21.2835839 23.2983335,20.827605 23.5375169,20.2352132 L24.2550633,18.3878955 L19.3996657,7.303989 L21.9110782,7.303989 L25.4270559,16.002751 Z"/>
    <g transform="translate(38 21)">
      <path fill="#555A66" d="M38,4.5 C38,2.0148689 29.493419,0 19,0 C8.506581,0 0,2.0148689 0,4.5 C0,6.9851311 8.506581,9 19,9 C29.493419,9 38,6.9851311 38,4.5 Z"/>
      <path fill="#333940" d="M38,4.5 C38,2.0322215 29.5141485,0.0287348 19,0 L19,9 C29.5141485,8.9712652 38,6.9677785 38,4.5 Z"/>
      <path fill="#636978" d="M0,14.2307692 C0,16.8645834 8.506581,19 19,19 C29.493419,19 38,16.8645834 38,14.2307692 L38,5 C38,7.6338142 29.493419,9.7692308 19,9.7692308 C8.506581,9.7692308 0,7.6338142 0,5 L0,14.2307692 Z"/>
      <path fill="#555A66" d="M19,9.7687025 L19,19 C29.5141485,18.9695494 38,16.8464312 38,14.2312975 L38,5 C38,7.6151337 29.5141485,9.7382519 19,9.7687025 Z"/>
    </g>
    <path fill="#FFF" d="M15.7954146 9.5075988C15.7954146 11.0152051 15.5206106 12.316104 14.9709944 13.4103343 14.4213781 14.5045647 13.6965327 15.4042518 12.7964365 16.1094225 11.8963403 16.8145932 10.8807603 17.3333317 9.7496659 17.6656535 8.6185716 17.9979753 7.4715635 18.1641337 6.3086074 18.1641337L0 18.1641337 0 .94832827 6.1174374.94832827C7.3122554.94832827 8.4911248 1.09017082 9.654081 1.37386018 10.8170371 1.65754954 11.8525305 2.12765629 12.7605922 2.78419453 13.6686538 3.44073277 14.4014645 4.3201566 14.9590462 5.4224924 15.516628 6.52482821 15.7954146 7.8865167 15.7954146 9.5075988zM11.5418839 9.5075988C11.5418839 8.5349495 11.3865599 7.7284733 11.0759072 7.0881459 10.7652546 6.44781848 10.3510572 5.93718529 9.8333028 5.556231 9.3155483 5.17527672 8.7261136 4.90374954 8.064981 4.74164134 7.4038484 4.57953313 6.7228124 4.49848024 6.0218525 4.49848024L3.9906721 4.49848024 3.9906721 14.5653495 5.9262675 14.5653495C6.6590892 14.5653495 7.3640212 14.480244 8.0410848 14.3100304 8.7181483 14.1398168 9.3155483 13.8601843 9.8333028 13.4711246 10.3510572 13.0820649 10.7652546 12.5633264 11.0759072 11.9148936 11.3865599 11.2664608 11.5418839 10.4640372 11.5418839 9.5075988zM25.8099306 9.3130699C25.6346906 9.2644374 25.4634359 9.2320163 25.2961614 9.2158055 25.1288869 9.1995947 24.9655975 9.1914894 24.8062885 9.1914894 24.2805686 9.1914894 23.8384926 9.2887528 23.4800472 9.4832827 23.1216018 9.6778125 22.8348498 9.9128659 22.6197825 10.1884498 22.4047153 10.4640338 22.2493913 10.7639295 22.1538058 11.0881459 22.0582204 11.4123623 22.0104284 11.6960474 22.0104284 11.9392097L22.0104284 18.1641337 18.091445 18.1641337 18.091445 6.05471125 21.867051 6.05471125 21.867051 7.8054711 21.9148434 7.8054711C22.2175307 7.1894599 22.6476587 6.68693204 23.2052404 6.29787234 23.7628221 5.90881264 24.4080142 5.71428571 25.1408358 5.71428571 25.3001449 5.71428571 25.4554689 5.722391 25.6068125 5.73860182 25.7581561 5.75481264 25.8816188 5.77912851 25.9772042 5.81155015L25.8099306 9.3130699zM39.5522599 12.0607903C39.5522599 13.0496503 39.3770226 13.9452847 39.0265426 14.7477204 38.6760627 15.550156 38.1981427 16.2310002 37.5927682 16.7902736 36.9873938 17.3495469 36.2864444 17.7831798 35.4898991 18.0911854 34.6933538 18.399191 33.8410631 18.5531915 32.9330014 18.5531915 32.0408707 18.5531915 31.1925626 18.399191 30.3880519 18.0911854 29.5835411 17.7831798 28.8825917 17.3495469 28.2851828 16.7902736 27.6877738 16.2310002 27.2138364 15.550156 26.8633565 14.7477204 26.5128765 13.9452847 26.3376392 13.0496503 26.3376392 12.0607903 26.3376392 11.0719302 26.5128765 10.1803484 26.8633565 9.3860182 27.2138364 8.591688 27.6877738 7.9189491 28.2851828 7.3677812 28.8825917 6.81661325 29.5835411 6.39513824 30.3880519 6.10334347 31.1925626 5.81154869 32.0408707 5.6656535 32.9330014 5.6656535 33.8410631 5.6656535 34.6933538 5.81154869 35.4898991 6.10334347 36.2864444 6.39513824 36.9873938 6.81661325 37.5927682 7.3677812 38.1981427 7.9189491 38.6760627 8.591688 39.0265426 9.3860182 39.3770226 10.1803484 39.5522599 11.0719302 39.5522599 12.0607903zM35.776654 12.0607903C35.776654 11.6717306 35.7129313 11.290782 35.5854841 10.9179331 35.4580368 10.5450843 35.2748342 10.2168201 35.0358706 9.9331307 34.796907 9.6494413 34.5021896 9.4184406 34.1517097 9.2401216 33.8012297 9.0618026 33.3949977 8.9726444 32.9330014 8.9726444 32.4710052 8.9726444 32.0647731 9.0618026 31.7142932 9.2401216 31.3638133 9.4184406 31.0730786 9.6494413 30.8420804 9.9331307 30.6110823 10.2168201 30.435845 10.5450843 30.3163632 10.9179331 30.1968814 11.290782 30.1371414 11.6717306 30.1371414 12.0607903 30.1371414 12.44985 30.1968814 12.8307985 30.3163632 13.2036474 30.435845 13.5764963 30.615065 13.9128658 30.8540286 14.212766 31.0929922 14.5126661 31.3877095 14.7517722 31.7381894 14.9300912 32.0886694 15.1084102 32.4949014 15.1975684 32.9568977 15.1975684 33.418894 15.1975684 33.825126 15.1084102 34.1756059 14.9300912 34.5260859 14.7517722 34.8208032 14.5126661 35.0597668 14.212766 35.2987304 13.9128658 35.4779504 13.5764963 35.5974322 13.2036474 35.716914 12.8307985 35.776654 12.44985 35.776654 12.0607903zM55.0868073 12.0607903C55.0868073 12.9037529 54.9593619 13.7142818 54.7044674 14.4924012 54.4495729 15.2705206 54.0791849 15.9554175 53.5932923 16.5471125 53.1073996 17.1388074 52.5139823 17.6129668 51.8130224 17.9696049 51.1120625 18.3262429 50.3155292 18.5045593 49.4233984 18.5045593 48.6905767 18.5045593 47.9975927 18.3546114 47.3444255 18.0547112 46.6912584 17.7548111 46.181477 17.345494 45.8150662 16.8267477L45.7672737 16.8267477 45.7672737 24 41.8482903 24 41.8482903 6.05471125 45.5761038 6.05471125 45.5761038 7.5379939 45.6477925 7.5379939C46.0142033 7.0516693 46.520002 6.62614164 47.1652037 6.26139818 47.8104054 5.89665471 48.5710948 5.71428571 49.4472946 5.71428571 50.3075636 5.71428571 51.0881663 5.88449678 51.7891262 6.22492401 52.490086 6.56535125 53.0835034 7.0273527 53.569396 7.6109422 54.0552887 8.1945318 54.4296594 8.8713234 54.6925193 9.6413374 54.9553793 10.4113514 55.0868073 11.2178276 55.0868073 12.0607903zM51.2873051 12.0607903C51.2873051 11.6717306 51.2275651 11.290782 51.1080833 10.9179331 50.9886015 10.5450843 50.8133642 10.2168201 50.582366 9.9331307 50.3513679 9.6494413 50.0606332 9.4184406 49.7101533 9.2401216 49.3596733 9.0618026 48.9534413 8.9726444 48.491445 8.9726444 48.0453797 8.9726444 47.647113 9.0618026 47.296633 9.2401216 46.9461531 9.4184406 46.6474531 9.653494 46.400524 9.9452888 46.153595 10.2370835 45.962427 10.5694004 45.8270143 10.9422492 45.6916016 11.3150981 45.6238962 11.6960467 45.6238962 12.0851064 45.6238962 12.4741661 45.6916016 12.8551147 45.8270143 13.2279635 45.962427 13.6008124 46.153595 13.9331292 46.400524 14.224924 46.6474531 14.5167188 46.9461531 14.7517722 47.296633 14.9300912 47.647113 15.1084102 48.0453797 15.1975684 48.491445 15.1975684 48.9534413 15.1975684 49.3596733 15.1084102 49.7101533 14.9300912 50.0606332 14.7517722 50.3513679 14.5167188 50.582366 14.224924 50.8133642 13.9331292 50.9886015 13.5967598 51.1080833 13.2158055 51.2275651 12.8348512 51.2873051 12.44985 51.2873051 12.0607903zM61.612472 2.18844985C61.612472 2.49645544 61.552732 2.78419319 61.43325 3.05167173 61.313769 3.31915027 61.154462 3.550151 60.955326 3.74468085 60.756189 3.9392107 60.517229 4.09321119 60.238438 4.20668693 59.959647 4.32016267 59.668913 4.3768997 59.366226 4.3768997 58.728989 4.3768997 58.195312 4.16210954 57.765178 3.7325228 57.335043 3.30293605 57.119979 2.78825021 57.119979 2.18844985 57.119979 1.89665508 57.175736 1.61702261 57.287253 1.34954407 57.398769 1.08206553 57.558076.8510648 57.765178.65653495 57.972279.46200511 58.211239.30395198 58.482065.18237082 58.75289.06078967 59.047607 8.8817842e-16 59.366226 8.8817842e-16 59.668913 8.8817842e-16 59.959647.05673702 60.238438.17021277 60.517229.28368851 60.756189.437689 60.955326.63221884 61.154462.82674869 61.313769 1.05774942 61.43325 1.32522796 61.552732 1.5927065 61.612472 1.88044426 61.612472 2.18844985zM57.406734 18.1641337L57.406734 6.05471125 61.325717 6.05471125 61.325717 18.1641337 57.406734 18.1641337zM72.05712 18.1641337L72.05712 11.550152C72.05712 11.2097247 72.029242 10.8855132 71.973484 10.5775076 71.917725 10.269502 71.826124 9.9979748 71.698677 9.7629179 71.57123 9.527861 71.39201 9.3414394 71.161011 9.2036474 70.930013 9.0658554 70.639279 8.9969605 70.288799 8.9969605 69.938319 8.9969605 69.631653 9.0658554 69.368793 9.2036474 69.105933 9.3414394 68.886887 9.5319137 68.711647 9.775076 68.536407 10.0182383 68.404979 10.2978708 68.317359 10.6139818 68.229739 10.9300928 68.18593 11.258357 68.18593 11.5987842L68.18593 18.1641337 64.24305 18.1641337 64.24305 6.05471125 68.042552 6.05471125 68.042552 7.7325228 68.090345 7.7325228C68.233723 7.4731497 68.420908 7.2178331 68.651906 6.96656535 68.882904 6.71529763 69.153726 6.50050748 69.464378 6.32218845 69.775031 6.14386942 70.113558 5.99797422 70.479969 5.88449848 70.846379 5.77102274 71.236681 5.71428571 71.650884 5.71428571 72.44743 5.71428571 73.124483 5.86018091 73.682065 6.15197568 74.239646 6.44377046 74.689688 6.82066638 75.032202 7.2826748 75.374717 7.7446832 75.621642 8.2755796 75.772986 8.8753799 75.924329 9.4751803 76 10.0749717 76 10.674772L76 18.1641337 72.05712 18.1641337zM56.607125 26.7138927C56.607125 25.9848657 56.393564 25.4449811 55.9664344 25.0942228 55.5393049 24.7434645 54.9720322 24.568088 54.2645991 24.568088 53.7306873 24.568088 53.2268156 24.6746894 52.7529689 24.8878955 52.2791222 25.1011015 51.8820312 25.3727631 51.5616842 25.7028886L50.5606046 24.4649243C51.0277774 24.0110019 51.598387 23.6533713 52.2724507 23.392022 52.9465143 23.1306727 53.6706213 23 54.4447934 23 55.1255309 23 55.716162 23.0997239 56.216704 23.2991747 56.717247 23.4986255 57.127685 23.7702871 57.448032 24.1141678 57.768379 24.4580485 58.008636 24.8638216 58.168809 25.3314993 58.328983 25.799177 58.409069 26.3012353 58.409069 26.8376891L58.409069 31.1086657C58.409069 31.4387912 58.419079 31.7861055 58.439101 32.150619 58.459123 32.5151325 58.495829 32.8143042 58.54922 33.0481431L56.847384 33.0481431C56.740602 32.5804653 56.687212 32.1127946 56.687212 31.6451169L56.627147 31.6451169C56.280104 32.1678155 55.8429705 32.5735887 55.3157326 32.8624484 54.7884948 33.1513082 54.1644947 33.2957359 53.4437138 33.2957359 53.0699756 33.2957359 52.6795584 33.2441546 52.2724507 33.1409904 51.8653429 33.0378262 51.4949472 32.8693272 51.1612523 32.6354883 50.8275575 32.4016494 50.5505949 32.0921615 50.3303563 31.7070151 50.1101177 31.3218688 50 30.8473206 50 30.2833563 50 29.540574 50.1935401 28.9525469 50.5806262 28.5192572 50.9677122 28.0859676 51.4749208 27.7558471 52.1022671 27.5288858 52.7296135 27.3019246 53.437036 27.1540581 54.2245559 27.085282 55.0120758 27.0165058 55.8062576 26.9821183 56.607125 26.9821183L56.607125 26.7138927zM56.146629 28.3851444C55.6794559 28.3851444 55.1956056 28.405777 54.6950633 28.4470426 54.194521 28.4883083 53.7407028 28.5708384 53.333595 28.6946355 52.9264873 28.8184325 52.5894606 29.0041253 52.3225047 29.2517194 52.0555488 29.4993135 51.9220728 29.829434 51.9220728 30.2420908 51.9220728 30.5309506 51.9788001 30.7716634 52.0922564 30.9642366 52.2057126 31.1568098 52.355873 31.3149925 52.5427422 31.4387895 52.7296113 31.5625866 52.936499 31.6485555 53.1634115 31.6966988 53.390324 31.7448421 53.6239069 31.7689133 53.8641672 31.7689133 54.7451217 31.7689133 55.4225121 31.4972517 55.8963588 30.9539202 56.370206 30.4105888 56.607125 29.7262765 56.607125 28.9009629L56.607125 28.3851444 56.146629 28.3851444zM63.275984 38L61.393954 38 61.393954 23.2682256 63.235941 23.2682256 63.235941 24.7950481 63.296006 24.7950481C63.603005 24.2723495 64.053486 23.8425051 64.647463 23.5055021 65.24144 23.168499 65.932178 23 66.719698 23 67.427131 23 68.071152 23.1306727 68.651781 23.392022 69.23241 23.6533713 69.732945 24.0178794 70.153401 24.4855571 70.573856 24.9532348 70.897535 25.4999969 71.124448 26.1258597 71.35136 26.7517225 71.464815 27.4222798 71.464815 28.1375516 71.464815 28.8528234 71.35136 29.5268194 71.124448 30.1595598 70.897535 30.7923003 70.577193 31.3425011 70.163412 31.8101788 69.74963 32.2778565 69.249095 32.6458033 68.661792 32.9140303 68.074489 33.1822572 67.413783 33.3163686 66.679655 33.3163686 65.998917 33.3163686 65.358232 33.1650634 64.757582 32.8624484 64.156931 32.5598334 63.683091 32.1334278 63.336049 31.5832187L63.275984 31.5832187 63.275984 38zM69.522721 28.1375516C69.522721 27.6836291 69.455983 27.2434684 69.322505 26.8170564 69.189027 26.3906444 68.988813 26.0123813 68.721857 25.6822558 68.454901 25.3521304 68.124548 25.090785 67.730788 24.8982118 67.337028 24.7056387 66.879873 24.6093535 66.359309 24.6093535 65.878788 24.6093535 65.441655 24.7056387 65.047895 24.8982118 64.654135 25.090785 64.317108 25.3521304 64.036804 25.6822558 63.756501 26.0123813 63.539602 26.3906444 63.386103 26.8170564 63.232603 27.2434684 63.155854 27.6905066 63.155854 28.1581843 63.155854 28.625862 63.232603 29.0729002 63.386103 29.4993122 63.539602 29.9257243 63.756501 30.3005486 64.036804 30.6237964 64.317108 30.9470443 64.654135 31.2049509 65.047895 31.3975241 65.441655 31.5900972 65.878788 31.6863824 66.359309 31.6863824 66.879873 31.6863824 67.337028 31.5866585 67.730788 31.3872077 68.124548 31.1877569 68.454901 30.9229728 68.721857 30.5928473 68.988813 30.2627219 69.189027 29.8844588 69.322505 29.4580468 69.455983 29.0316347 69.522721 28.5914741 69.522721 28.1375516zM75.811169 38L73.929139 38 73.929139 23.2682256 75.771126 23.2682256 75.771126 24.7950481 75.831191 24.7950481C76.13819 24.2723495 76.588671 23.8425051 77.182648 23.5055021 77.776625 23.168499 78.467363 23 79.254883 23 79.962316 23 80.606337 23.1306727 81.186966 23.392022 81.767595 23.6533713 82.26813 24.0178794 82.688586 24.4855571 83.109041 24.9532348 83.43272 25.4999969 83.659633 26.1258597 83.886545 26.7517225 84 27.4222798 84 28.1375516 84 28.8528234 83.886545 29.5268194 83.659633 30.1595598 83.43272 30.7923003 83.112378 31.3425011 82.698597 31.8101788 82.284815 32.2778565 81.78428 32.6458033 81.196977 32.9140303 80.609674 33.1822572 79.948968 33.3163686 79.21484 33.3163686 78.534102 33.3163686 77.893417 33.1650634 77.292767 32.8624484 76.692116 32.5598334 76.218276 32.1334278 75.871234 31.5832187L75.811169 31.5832187 75.811169 38zM82.057906 28.1375516C82.057906 27.6836291 81.991168 27.2434684 81.85769 26.8170564 81.724212 26.3906444 81.523998 26.0123813 81.257042 25.6822558 80.990086 25.3521304 80.659733 25.090785 80.265973 24.8982118 79.872213 24.7056387 79.415058 24.6093535 78.894494 24.6093535 78.413973 24.6093535 77.97684 24.7056387 77.58308 24.8982118 77.18932 25.090785 76.852293 25.3521304 76.571989 25.6822558 76.291686 26.0123813 76.074787 26.3906444 75.921288 26.8170564 75.767788 27.2434684 75.691039 27.6905066 75.691039 28.1581843 75.691039 28.625862 75.767788 29.0729002 75.921288 29.4993122 76.074787 29.9257243 76.291686 30.3005486 76.571989 30.6237964 76.852293 30.9470443 77.18932 31.2049509 77.58308 31.3975241 77.97684 31.5900972 78.413973 31.6863824 78.894494 31.6863824 79.415058 31.6863824 79.872213 31.5866585 80.265973 31.3872077 80.659733 31.1877569 80.990086 30.9229728 81.257042 30.5928473 81.523998 30.2627219 81.724212 29.8844588 81.85769 29.4580468 81.991168 29.0316347 82.057906 28.5914741 82.057906 28.1375516z" transform="translate(37)"/>
  </g>
</svg>
